<svg width="50" height="50" viewBox="0 0 50 50" fill="none" xmlns="http://www.w3.org/2000/svg">
<g id="contactIcon">
<path id="Rectangle 2" class="fill" fill-rule="evenodd" clip-rule="evenodd" d="M44 18C44 15.7909 42.2091 14 40 14H10C7.79086 14 6 15.7909 6 18V33C6 35.2091 7.79086 37 10 37H40C42.2091 37 44 35.2091 44 33V18ZM38 21C38 20.4477 37.5523 20 37 20H13C12.4477 20 12 20.4477 12 21V21C12 21.5523 12.4477 22 13 22H37C37.5523 22 38 21.5523 38 21V21ZM13 31C12.4477 31 12 30.5523 12 30V30C12 29.4477 12.4477 29 13 29H24C24.5523 29 25 29.4477 25 30V30C25 30.5523 24.5523 31 24 31H13ZM13 26.5C12.4477 26.5 12 26.0523 12 25.5V25.5C12 24.9477 12.4477 24.5 13 24.5H37C37.5523 24.5 38 24.9477 38 25.5V25.5C38 26.0523 37.5523 26.5 37 26.5H13Z" fill="white"/>
<path id="Vector 12" class="fill" d="M38 40V37H33L38 40Z" fill="white"/>
</g>
</svg>
