<svg width="50" height="50" viewBox="0 0 50 50" fill="none" xmlns="http://www.w3.org/2000/svg">
<g id="achievementIcon">
<path id="Vector 9" class="fill" fill-rule="evenodd" clip-rule="evenodd" d="M36.8182 44C36.8182 44 28.5455 44 28.5455 35.6875V28.5625C28.5455 28.5625 35.6364 26.1875 35.6364 19.0625C35.6364 19.0625 35.6364 13.125 35.6364 10.75C35.6364 8.375 38 6 38 6H12C12 6 14.3636 8.375 14.3636 10.75C14.3636 13.125 14.3636 19.0625 14.3636 19.0625C14.3636 26.1875 21.4545 28.5625 21.4545 28.5625V35.6875C21.4545 44 13.1818 44 13.1818 44H36.8182ZM21.4545 25H28.5455V23.8125L26.1818 22.625V10.75H23.8182L22.6364 11.9375L21.4545 13.125L22.6364 14.3125L23.8182 13.125V22.625L21.4545 23.8125V25Z" fill="white"/>
<path id="Vector 10" class="stroke" d="M35 13C36.364 10.1231 41.4505 8.36813 43 12.5C44.5 16.5 38.0921 21.0341 34 23.5" stroke="white"/>
<path id="Vector 11" class="stroke" d="M15.223 12.944C13.859 10.0671 8.77248 8.31213 7.22302 12.444C5.72302 16.444 12.1309 20.9781 16.223 23.444" stroke="white"/>
</g>
</svg>
