<svg width="50" height="50" viewBox="0 0 50 50" fill="none" xmlns="http://www.w3.org/2000/svg">
<g id="presentationIcon" clip-path="url(#clip0_113_2)">
<circle id="Ellipse 2" class="fill" cx="25" cy="14" r="8" fill="white"/>
<path id="Vector 5" class="fill" d="M28.5 22C26 23 24 23 21.5 22C16.7204 20.0882 10 31.5 10 44H40C40 31.5 33.3122 20.0751 28.5 22Z" fill="white"/>
<path id="?" class="fill" d="M35.8675 12.4545V12.1136C35.8675 11.3324 35.9291 10.7098 36.0522 10.2457C36.1753 9.78172 36.3576 9.41004 36.5991 9.13068C36.8406 8.84659 37.1365 8.59091 37.4869 8.36364C37.7899 8.16477 38.0598 7.97301 38.2965 7.78835C38.538 7.60369 38.7274 7.4072 38.8647 7.19886C39.0067 6.99053 39.0778 6.75379 39.0778 6.48864C39.0778 6.25189 39.021 6.04356 38.9073 5.86364C38.7937 5.68371 38.6398 5.54403 38.4457 5.4446C38.2515 5.34517 38.0361 5.29545 37.7994 5.29545C37.5437 5.29545 37.3069 5.35464 37.0891 5.47301C36.8761 5.59138 36.7032 5.75473 36.5707 5.96307C36.4428 6.1714 36.3789 6.41288 36.3789 6.6875H32.7425C32.752 5.64583 32.9888 4.80066 33.4528 4.15199C33.9168 3.49858 34.5323 3.02036 35.2994 2.71733C36.0664 2.40956 36.9092 2.25568 37.8278 2.25568C38.841 2.25568 39.7454 2.40483 40.5408 2.70312C41.3363 2.99669 41.9637 3.44176 42.4229 4.03835C42.8822 4.63021 43.1119 5.37121 43.1119 6.26136C43.1119 6.83428 43.0124 7.33854 42.8136 7.77415C42.6194 8.20502 42.3472 8.58617 41.9968 8.91761C41.6512 9.24432 41.2463 9.54261 40.7823 9.8125C40.4414 10.0114 40.1549 10.2173 39.9229 10.4304C39.6909 10.6387 39.5157 10.8778 39.3974 11.1477C39.279 11.4129 39.2198 11.7348 39.2198 12.1136V12.4545H35.8675ZM37.6005 17.2273C37.0513 17.2273 36.5801 17.0355 36.1871 16.652C35.7989 16.2637 35.6071 15.7926 35.6119 15.2386C35.6071 14.6989 35.7989 14.2372 36.1871 13.8537C36.5801 13.4702 37.0513 13.2784 37.6005 13.2784C38.1213 13.2784 38.5806 13.4702 38.9783 13.8537C39.3808 14.2372 39.5844 14.6989 39.5891 15.2386C39.5844 15.608 39.4873 15.9441 39.2979 16.2472C39.1133 16.5455 38.8718 16.7846 38.5735 16.9645C38.2752 17.1397 37.9509 17.2273 37.6005 17.2273Z" fill="white"/>
</g>
<defs>
<clipPath id="clip0_113_2">
<rect width="50" height="50" fill="white"/>
</clipPath>
</defs>
</svg>
